<svg xmlns="http://www.w3.org/2000/svg" viewBox="0 0 414.27 158.18"><path d="m373.53 71.08 23.16-23.78-30.01 9.24 7.52-33.35-22.83 21.08-11.1-28.04-7.83 29.36-18.47-16.83 8.61 30.85-127.66-.03-.67 10.62-7.34 11.07h-3.89l4.14-21.69h-31.9l-1.48-2.05H136.7s.31-2.85-.71-4c-.77-.86-2.35-1.78-3.99-1.95-.95-.1-1.92-.16-2.88-.16-1.33-1.13-3.03-1.74-4.81-1.74-.93 0-1.86.18-2.72.51a7.64 7.64 0 0 0-1.91-.25c-1.84 0-3.57.68-4.88 1.93-.69.66-1.24 1.44-1.66 2.33-.45.06-1.23.21-2.06.67-.9.5-1.63 1.23-2.17 2.18-.95.05-1.94.06-2.97.07-.39 0-.9-.14-1.58-.42-.65-.28-1.4-.73-2.2-1.22-.55-.34-1.1-.67-1.66-.98-2.58-1.43-4.98-1.67-6.57-1.73a54.178 54.178 0 0 0-3.89.01c-2.01.08-3.29 1.01-3.99 1.77-.01.02-.03.03-.04.05-.33-.24-.71-.45-1.14-.62-1.02-.42-1.93-.45-2.32-.47a274.159 274.159 0 0 0-10.76-.23h-.76c-1.12 0-4.11 0-6.52 2.91-.21.25-.41.51-.61.77-.11.14-.22.29-.31.4l-3.79-.06-.49-.52c-.01-1.06 0-2.22.02-3.35.02-1.63.05-3.17-.01-4.47-.1-2.14-.15-3.34-9.93-10.87.04-.02.08-.03.12-.05.99-.41 1.99-.95 3.05-1.66 2.89-1.94 5.33-4.22 7.48-6.23l.54-.51c.52-.48.99-1.03 1.46-1.68 1.37-1.92 2.93-5.95-2.1-11.42a5.563 5.563 0 0 0-3.41-1.79l-.35-.04h-.33c-.89 0-2.24.23-3.57 1.31l-.35.28c-.85.69-1.73 1.41-2.61 2.18-1.55 1.36-3.01 2.64-4.52 3.55-1.29.77-2.52 1.17-3.6 1.17-1.46-.02-3.29-.93-5.23-1.89-.68-.34-1.36-.67-2.04-.98a5.78 5.78 0 0 0-2.45-.55h-.31l-.27.03c-1.21.13-2.32.64-3.28 1.5-1.69 1.53-3.1 3.33-4.18 5.34-.94 1.76-1.14 3.51-.59 5.19.64 1.95 2.07 2.95 2.62 3.34.16.11.32.24.47.36-.12.12-.23.23-.35.34-.21.21-.43.42-.65.63-.69.64-1.38 1.27-2.07 1.91-1.62 1.49-3.29 3.02-4.91 4.63-.86.85-3.62 3.91-3.18 7.61.24 1.99 1.37 3.73 3.11 4.78.42.25 1.1.66 4.13 1.46-7.49 4.25-11.32 6.55-12.77 7.65l-.73.56-.5.78c-2.68 4.17-2.85 8.51-2.95 11.38-.17 4.59 2.4 6.65 3.94 7.46l.83.43 14.32 1.91c.55.75 1.11 1.52 1.69 2.27l.87 1.13c1.61 2.09 3.27 4.25 5 6.35 3.15 3.81 7.72 3.81 9.43 3.81.51 0 1.02-.01 1.53-.03h.53c3.28-.09 6.64-.14 9.96-.15h1.16c2.36 0 4.73.02 7.08.05.04.16.08.33.12.5.11.44.21.88.34 1.31.55 1.93 1.27 3.7 1.96 5.4.18.44.35.87.53 1.32.39.97.97 1.78 1.77 2.41.69.54 1.87 1.19 3.53 1.19 5.17-.04 10.33-.04 15.5-.16-.1-2.99-.2-5.98-.31-8.96 1.25-.14 2.35.39 3.58.39 1.85 0 3.11-.69 3.85-1.26.76-.59 1.22-1.25 1.5-1.69.11-.17.22-.35.33-.53.06.25.12.52.2.79.63 2.2 2.03 3.87 3.95 4.7 1.24.54 2.39.58 2.94.59.88.03 1.98.07 3.11.12 1.99.08 4.06.17 5.44.17s2.63-.06 3.9-.79c.99-.58 1.64-1.31 2.08-2.16.34.35.67.69.98.97.41.39 1.19 1.11 2.32 1.63 1.24.57 2.41.65 3.03.69.79.06 1.62.08 2.69.08h3.84c1.57 0 3.14-.03 4.71-.07 1.15-.03 2.57.25 3.51-.55.61-.52 1-1.24 1.49-1.87.17-.22.37-.44.63-.57.28-.14.61-.14.93-.14 3.64.01 15.2.03 15.2.03l3.82-4.32h18.6L173.6 105h24.09l3.29-5.28 118.16.03-16.96 32.4 24.95-17.57 8.74 28.51 12.01-29.2 19.41 14.15-2.06-26.18 23.51 1.12-17.16-15.51 22.8-9.56-20.85-6.81Z" style="fill:#fff"/><path d="M156.91 95.61s-1.46 1.43-2.17 2.13c-.29.29-1.03.09-1.39.1-.53.01-1.04 0-1.57-.03-.05 0-.1 0-.14.02-.04.03-.06.08-.08.13-.19.53-.38 1.06-.56 1.6-.65.01-1.32.07-1.96-.05a.22.22 0 0 1-.15-.06.36.36 0 0 1-.08-.15c-.17-.49-.37-.98-.58-1.46-.02-.04-.04-.09-.09-.12-.03-.02-.07-.02-.11-.02-.46 0-.91.11-1.38.12-.04 0-.08 0-.11.02s-.05.05-.07.09c-.24.47-.42.98-.53 1.5-.5.02-1.01.07-1.51.13-.2-.54-.36-1.1-.54-1.66-.09-.28-1.25-.07-1.42-.03-.19.46-.38.93-.57 1.39-.02.06-.05.12-.1.16-.06.05-.14.05-.21.06l-1.15.08c-.15-.45-.32-.9-.51-1.34-.05-.11-.1-.22-.2-.29-.12-.08-.28-.08-.42-.07-.34.02-.67.03-1.01.05-.12 0-.25.01-.36.08-.1.06-.17.15-.23.24-.44.61-.86 1.23-1.31 1.83-.2.27-1.09 1.76-1.41 1.76-2.57.07-5.14.14-7.71.11-1.6 0-3.23.06-4.82-.05-.42-.03-.85-.06-1.23-.24-.35-.16-.63-.42-.91-.69-.86-.8-1.94-2.09-2.9-2.76-.41-.29-5.06-1.89-5.31-1.67-.4.35-.61 4.65-1.05 4.9s-6.45-.1-9.67-.2c-.34 0-.68-.02-.99-.16-.53-.23-.85-.79-1.01-1.35-.49-1.71-.2-3.35-2.07-4.28-1.03-.51-2.22-.58-3.37-.64-.85-.05-1.7-.09-2.55-.14-.11 0-.23 0-.33.05-.11.07-.16.2-.2.32-.37 1.07-.87 2.1-1.47 3.06-.09.14-.18.28-.31.38-.6.47-2.7-.29-3.43-.39-1.4-.18-2.81-.37-4.21-.55-1.98-.26-2.37.07-2.16 2.03.07.65.69 7.71.74 7.71l-10.3.09c-.11 0-.24 0-.33-.07-.07-.05-.11-.14-.14-.22-.81-2.06-1.71-4.1-2.32-6.23-.27-.95-.45-1.95-.78-2.87-.1-.28-.66-2.65-.88-2.65-4.03-.09-8.06-.14-12.09-.12-3.36 0-6.72.05-10.08.14-2.56.06-5.51.32-7.32-1.87-1.98-2.39-3.86-4.87-5.76-7.34-.98-1.27-1.91-2.58-2.93-3.97-5.19-.69-10.36-1.38-15.61-2.08-1.01-.53-1.19-1.54-1.15-2.63.11-2.96.3-5.91 2.12-8.74 2.65-2.02 18.41-10.76 20.52-11.96 1.58-.89 1.06-2.6 1.06-2.6s-11.98-2.35-13.42-3.22c-1.54-.92.16-3.29 1.06-4.18 2.22-2.21 4.57-4.29 6.86-6.43.69-.65 1.35-1.34 2.07-1.95 1.06-.89 2.3-2.28 1.43-3.7-.9-1.49-2.12-2.78-3.54-3.78-.27-.19-.56-.39-.67-.7-.12-.36.05-.74.23-1.07a14.73 14.73 0 0 1 3.08-3.94c.09-.08.19-.17.31-.18.1-.01.21.03.3.08 2.98 1.36 6.02 3.3 9.38 3.35 2.24.03 4.43-.77 6.35-1.91s3.62-2.63 5.3-4.11c.92-.81 1.87-1.57 2.81-2.34.08-.07.17-.13.27-.12.09.01.15.08.21.14 1.03 1.12 2.81 3.26 1.69 4.82-.23.32-.48.63-.78.9-2.28 2.13-4.6 4.37-7.36 6.22-.67.45-1.37.86-2.13 1.17-1.1.45-2.35.48-3.56.51-1.9.04-4.65-.29-4.65-.29l2.53 5.54s12.2 9.09 12.25 10.25c.11 2.46-.12 6.46.03 9.42.04.69.76 1.17 1.21 1.59.62.59 1.17 1.27 1.75 1.89.11.12.23.25.39.32s.34.08.52.08l7.28.12c.16 0 .32 0 .47-.06.2-.09.32-.27.45-.44.34-.42.79-.7 1.16-1.09.44-.47.8-1.02 1.21-1.52.94-1.14 1.85-1.01 3.24-1.01 1.21 0 2.41.01 3.62.03 2.31.04 4.62.1 6.93.2.19 0 .38.02.55.09.39.16.59 3.06.7 3.25s.15.4.37.58c.44.35 1.45.19 2.15.18.96-.01 1.91-.05 2.87-.09.08 0 .16 0 .21-.03.06-.02.08-.06.1-.1.21-.39.37-3.33.47-4.17.01-.11.03-.24.11-.32.09-.1.25-.11.39-.12 1.16-.05 2.32-.05 3.48 0 1.54.05 2.86.32 4.21 1.07 1.46.81 2.82 1.79 4.36 2.44 1.19.5 2.42.86 3.72.84 1.94-.03 3.88-.06 5.8-.31.09-.01.18-.02.25-.07.08-.05.12-.13.17-.21.39-.69.78-1.39 1.18-2.08.05-.09.11-.19.2-.24.07-.04.16-.05.24-.06 1.19-.1 2.4-.12 3.59-.06-.06-.66-.02-1.33.12-1.99.13-.62.37-1.25.83-1.68.72-.69 1.92-.6 2.65.02.14.12.27.26.45.33.54.22 1.04-.35 1.51-.69.8-.58 2-.53 2.74.13.44.39.74.97 1.3 1.16.28.1.58.08.87.07 1.17-.05 2.35 0 3.51.12.23.02.49.06.64.24.15.17.17.41.17.64.02.86-.03 1.73-.13 2.58-.29-.06-.6-.13-.89-.05s-.55.35-.51.65c.05.37.47.54.83.64.87.24 1.73.5 2.59.73.4.11.29.2.74.07.36-.11.67-.38 1.04-.48.49-.13 1.16-.02 1.68-.02.07 0 .14 0 .19.04.06.04.09.11.12.18.25.65.46 1.32.62 2.01.02.08.04.16.11.2.05.02.1.02.15.02l.77-.06c.09 0 .18-.02.25-.07.08-.06.11-.16.13-.25.17-.58.33-1.16.5-1.73.03-.1.07-.21.16-.25.05-.02.11-.03.16-.03.47 0 .96-.1 1.42-.03.18.76.36 1.52.55 2.28.02.09.05.18.12.23.05.03.11.04.17.04.33.03.66.04.99.02.11 0 .24-.02.32-.1.04-.05.06-.1.07-.16.23-.79.58-1.52.75-2.33 0-.04.02-.08.05-.1.03-.03.08-.03.12-.03l1.55.06c.28.79.55 1.57.83 2.36.02.06.05.13.1.17.05.03.11.04.17.05.7.06 1.14.17 1.43-.5s.54-1.31.82-1.97h1.66c.25.79.48 1.49.76 2.37.82.28 1.72.55 2.58.9 1.52.62 1.7 1.8 1.7 1.8v28.75Zm-26.75-9.65V69.18l-3.51-2.92h-19.74l-3.51 2.92.06 16.78 3.45 2.92h19.74l3.51-2.92ZM40.39 60.38c-.22.36-25.33 13.93-25.84 14.41s-.64 2.11-.04 2.11 28.31-14.73 28.43-15.48c.05-.34-.04-.68-.12-1.02-.33-1.4-.36-3.14.81-3.99.42-.31 1.1-.56 1.62-.61.71-.07 1.27.16 1.96.36.85.25 1.14.78 1.49.61.33-.16.35-1.27.19-1.58-.24-.46-1.31-1.04-1.77-1.17-.81-.22-1.65-.38-2.47-.23-1 .19-2.21.64-2.91 1.37-.93.97-1.42 2.06-1.39 3.92 0 .42.2 1.02.05 1.28Zm.28 27.46.02.04c.08.14.17.28.31.35.11.05.23.05.36.06 2.76.01 5.51.07 8.26-.14.12 0 .25-.03.33-.12.06-.08.06-.18.06-.28-.03-4.84.03-9.68.03-14.53 0-.08 0-.18-.06-.24-.09-.11-.27-.08-.41-.04-3.12.89-6.15 2.09-9.17 3.28-1.48.58-2.97 1.17-4.28 2.08-.17.12-.35.25-.43.44-.12.28 0 .6.16.86 1.72 2.66 3.23 5.5 4.83 8.25Zm23.27 3.48c-.46-1.11-1.54-.9-2.41-.91-3.86-.03-17.32.31-20.15 0-1.61-.17-2.55-1.24-3.38-2.45-.32-.47-3.15-4.73-4.37-6.3-.46-.6-1.11-1.07-2.08-.34.09.38.09.88.32 1.21 1.01 1.47 5.16 7.65 6.48 9.11 2.24.95 4.6.74 6.95.71 3.03-.03 6.06-.08 9.08-.09 2.55 0 5.11.04 7.66.04.75 0 1.54.02 1.89-1ZM37.35 43.8c-.14-.07-.28-.13-.43-.12-.16.02-.31.12-.44.21a27.775 27.775 0 0 0-4.06 3.68c-.43.47-1.36 1.18-.61 1.68.67.45 2.07.49 2.86.71.84.24 1.8.63 2.01 1.48.12.49.01 1.13.44 1.38.19.11.43.1.65.08 2.09-.19 4.06-.86 6.09-1.35.25-.06.53-.14.63-.37.13-.29-.07-.61-.27-.85-1.05-1.27-2.29-2.33-3.41-3.52-1.06-1.13-2-2.15-3.38-2.96-.03-.02-.06-.03-.09-.05Zm63.54 54.86v.48c2.46.18 4.93.27 7.4.27 1.18 0 1.5.02 1.71-1.11.22-1.18.39-2.33.48-3.53.01-.13.04-.29.16-.33.06-.02.13 0 .19 0 2.17.48 6.39 1.91 7.3 2.29.52.22 1.09 1.01 1.99 1.95 1.35 1.41 1.9 1.55 3.74 1.57 2.53.03 6.63 0 9.16-.12.35-.02.73-.04 1.02-.25.68-.49.24-1.18-.44-1.19-2.93-.04-5.86.06-8.79-.04-.87-.03-1.71.01-2.51-.39-.42-.21-.79-.49-1.14-.79-.74-.62-1.26-1.44-2.06-1.94-.7-.43-1.33-.62-1.72-.73-2.6-.74-4.69-1.51-7.39-1.84-.15-.02-.31-.03-.45.02-.37.13-.46.6-.5 1l-.24 2.89c0 .11-.02.22-.1.3-.07.07-.16.09-.26.11-1.82.34-3.69.13-5.54.08-1.04-.03-.98-.93-1.28-1.73-.36-.98-.78-1.83-1.57-2.54-.57-.52-1.26-.91-2-1.13-.23-.07-2.03-.52-2.18-.27-.19.33-.07.78.19 1.06s.62.45.97.6c2.47 1.08 3.73 2.64 3.84 5.33Zm-18.43-4.81c1.76.04 3.51.09 5.27.13.26 0 .53 0 .76-.11.25-.13.41-.39.53-.65.16-.36.49-1.2.31-1.6-.15-.34-.57-.68-.9-.19-.08.12-.11.26-.17.38-.23.42-.8.47-1.27.46-1.45 0-2.89 0-4.34-.01-.73 0-1.46-.01-2.18-.01-.29 0-.55.06-.84.05-.1 0-.21 0-.3-.06-.08-.04-.14-.12-.2-.19-.42-.52-.72-1.12-1.15-1.63-.46-.54-.97-.61-1.67-.61h-.94c-.07 0-.15.01-.18.07-.01.03 0 .06 0 .09.25 1.86.59 3.69.82 5.55s.5 3.83.79 5.74c.12.83.26 1.65.52 2.45.05.15.11.31.23.4s.34.1.42-.03c.04-.06.04-.14.05-.21.09-2.02-.06-4.03-.17-6.05-.01-.27-.21-3.8-.34-3.8 1.64-.07 3.32-.23 4.94-.19Zm61.68-27.1c-.27-.02-.59.1-.86.02-.21.65-.52 1.28-.91 1.85l-1.31.03c-.06 0-.13 0-.18-.03-.07-.03-.11-.11-.15-.17-.32-.55-.63-1.11-.95-1.66-.48 0-.96-.01-1.44-.06-.12.64-.2 1.92-1.05 1.89-.44-.01-.88-.03-1.32-.04-.07 0-.15 0-.21-.04a.393.393 0 0 1-.15-.21c-.19-.42-.38-.84-.56-1.26-.03-.06-.05-.12-.1-.15-.06-.05-.15-.05-.22-.06-.5-.03-1.01-.07-1.51-.08-.06 0-.14 0-.18.05-.03.04-.04.09-.04.15 0 1.1 0 2.21-.01 3.31 0 .13.03.29.15.31 1.4.18 2.94.02 4.36.02 1.54 0 3.08 0 4.62.02 3.81.05 7.65.38 11.45.23.04 0 .09 0 .12-.04.02-.02.02-.05.02-.08 0-1.25-.06-2.51.08-3.75-.4 0-.8 0-1.2-.01-.06 0-.13 0-.19.03-.08.04-.13.13-.18.21l-.45.84c-.14.27-.29.55-.52.75s-.55.33-.85.25c-.32-.09-.51-.4-.69-.68-.27-.44-.54-.88-.8-1.32-.03-.05-.06-.1-.12-.13s-.12-.02-.19-.01c-.9.13-1.29 1.28-1.59 2.06l-1.18-.02c-.09 0-.19 0-.26-.06a.4.4 0 0 1-.13-.18c-.27-.53-.55-1.05-.82-1.58a.799.799 0 0 0-.2-.28.42.42 0 0 0-.28-.1Zm-127.99 2.6s1.23.62 1.67.56c.62-.09 17.22-8.74 17.45-9.12.21-.35.16-.86.23-1.28-1.6-.53-1.62-.55-2.16-.09-.43.36-.77.85-1.23 1.15-1.73 1.13-15.96 8.78-15.96 8.78Zm5.77 8.7c-.23 0-.46-.02-.69-.03.8.55 1.84.86 2.76 1.12 1.01.29 2.09.36 3.13.31 1.18-.06 2.37-.38 3.32-1.07 1.44-1.04 2.87-4.44.52-5.39-.62.93-.93 1.97-1.69 2.81-.7.77-1.57 1.38-2.53 1.78-1.51.62-3.2.53-4.83.46Zm115.79-5.2c.12.03.02 3.37.02 3.7.01 1.26.03 2.52.05 3.77l.06 3.77c.01 1.16-.08 2.37.02 3.52 0 .05 0 .1-.02.14-.04.07-.13.08-.21.09-.61.05-1.23.06-1.84.03-.1 0-.22-.02-.29-.09-.07-.08-.08-.19-.08-.3-.03-4.13 0-8.26.05-12.39 0-.27 0-.56-.09-.82-.17-.48-.62-.5-1-.73-.41-.24-.95-.56-1.29-.9.17.12.01 1.75.02 2.01 0 .74.01 1.48.02 2.21.01 1.44.03 2.88.06 4.33s.21 2.91.1 4.32c-.1 1.32-.23 2.49.16 3.8.02.08.05.16.12.21.07.05.16.05.24.05 3.22-.07 6.43.19 9.64.23s6.93.05 10.25-.01c.11-4.43.23-14.98.2-15.08-.04-.11-1.52-1.53-2.29-1.85.06 4.23.11 8.47.17 12.7 0 .64-.07 1.25-.07 1.89 0 .03 0 .06-.02.09-.03.04-.08.05-.13.05-.36.02-.72.03-1.08.05-.34.02-.69.03-1.01-.07a.21.21 0 0 1-.13-.07c-.06-.06-.06-.14-.07-.22-.07-1.23-.06-2.45-.03-3.69l.12-4.81c.04-1.6-.12-3.07-.11-4.62-.57-.52-1.23-.94-1.94-1.24-.07.01-.09.1-.09.17-.06 2.44-.12 4.88-.15 7.33-.03 2.4.04 4.81-.02 7.2h-2.14c-.09 0-.19-.01-.23-.09-.02-.03-.02-.07-.02-.11-.03-1.4-.03-2.78-.06-4.18-.03-1.56-.02-3.12-.01-4.68 0-.8.01-1.59.01-2.39 0-.62.14-1.54-.25-2.08-.16-.22-.38-.39-.6-.55-.4-.28-.83-.53-1.27-.74.03 2.99.02 5.98.01 8.97 0 1.13-.05 2.26-.05 3.39 0 .81.05 1.61.09 2.42v.11c-.04.11-.18.13-.3.12a33.8 33.8 0 0 1-2.01-.1c-.04 0-.08 0-.12-.03-.06-.04-.07-.13-.07-.21-.03-4.49-.08-8.98-.08-13.47 0-.1 0-.21-.06-.29-.05-.08-.15-.13-.24-.17-.62-.29-1.27-.52-1.94-.69Zm-8.28 18.84-10.62-.09s1.51 2.12 2.12 2.9c.91 1.17 1.74 2.31 3.31 2.31 1.55 0 3.64 0 5.19.01-.03-.96 0-5.13 0-5.13Zm-82.65-46c-1.03-.75-2.05-1.53-2.99-2.36-1.52-1.33-3.19-2.61-4.22-4.39-.7-1.21-1.17-2.54-1.61-3.87-.06-.17-.12-.35-.26-.47s-.37-.14-.48 0c-.09.12-.06.29-.02.43l1.23 4.59c.07.25.14.5.28.72.12.18.29.33.45.48 3.43 3 6.96 5.87 10.6 8.61.44.33 2.36 1.15 1.66-.24-.14-.27-.39-.46-.64-.64-1.31-.96-2.68-1.89-4.01-2.86Zm.24 20.02c-.13 1.38-.09 2.76.1 4.13 0 .04.02.09.06.12.05.03.13.02.2 0 .76-.15 1.7-.23 2.41-.49.47-.17.36-.04.51-.41.19-.5.06-1.29.1-1.81.07-.79.07-1.58.02-2.36-.83 0-1.66.01-2.49.02-.25 0-.53.01-.7.15-.14.11-.17.28-.18.44 0 .07-.01.13-.02.2Zm77.32-1.88c.34.11.7.04.9-.33.27-.53.25-1.21.25-1.8 0-.58 0-1.16-.01-1.75 0-.85-.02-1.71-.19-2.54-.05-.23-.12-.47-.29-.63-.18-.16-.44-.2-.69-.23-.3-.04-.68-.05-.85.21-.13.19-.09.44-.17.65-.09.22-.31.35-.54.41-.3.07-.69.06-.99.01-.09-.02-.19-.04-.27-.09-.13-.08-.2-.22-.28-.35-.32-.51-.8-.79-1.41-.75-.25.02-.51.13-.65.33-.09.14-.13.3-.16.47-.2 1.05-.2 2.13-.17 3.19.02.67.03 1.34.05 2.01 0 .29.02.58.15.84.17.34.56.56.95.53.48-.04.87-.44 1.04-.89s.18-.94.2-1.42c.02-.97.07-1.94.14-2.91.01-.15.03-.32.16-.41.09-.06.21-.07.32-.07.35 0 .83 0 1.14.21s.32.68.33 1.02c.02.77.04 1.54.07 2.3.01.47.03.95.25 1.37.14.27.44.51.75.61ZM22.65 49.5c.27.23.83.34 1.12.42.56.16 1.12.31 1.67.47.06.02.12.03.18.02.12-.03.16-.18.14-.3-.06-.33-.4-.54-.72-.7-.26-.13-.56-.29-.63-.58-.04-.18 0-.36.05-.53.16-.54.47-1.04.58-1.6-.37 0-.68.22-.95.45-.62.52-1.14 1.14-1.54 1.82-.13.22-.07.39.09.52Zm47.55 53.68a.58.58 0 0 0-.31.2c-.25.33.45 1.81.58 2.19l6.32-.12-.74-1.99c-.02-.07-.05-.14-.11-.18-.06-.04-.14-.04-.22-.04-1.16.02-2.31.07-3.47 0-.41-.03-1.47-.24-2.05-.05Zm75.87-9.24c.15.53.29 1.06.44 1.59.02.06.04.13.09.18.06.05.14.05.21.05.41 0 .83.02 1.24.02.11 0 .24 0 .33-.07.09-.07.13-.18.16-.29l.63-2.02c.03-.09.06-.19.14-.24.07-.05.16-.04.25-.04l1.5.09c.08 0 .16.01.22.06.05.05.07.12.09.18l.6 2.4h1.53c.01-1.3.1-2.55.09-3.85-.26-.06-.61 0-.88-.01s-.56 0-.84-.01c-.71 0-1.42-.02-2.13-.03l-5.38-.09c-1.8-.03-3.71-.06-5.56-.1-1.39-.02-2.79-.05-4.18-.08-.31 0-.62 0-.93-.01-.25 0-.29.01-.3.27-.02.28 0 .57-.01.85-.01.94-.05 1.86-.04 2.79h1.62c.07 0 .15 0 .22-.04.1-.06.13-.17.16-.28.18-.67.35-1.34.53-2.01.02-.09.05-.18.1-.25.22-.29 1.16-.07 1.48-.02.03 0 .06.01.09.03.05.03.07.1.08.16.16.69.31 1.39.47 2.08 0 .03.02.07.04.09.02.02.06.02.09.03.43.04.87.06 1.3.04.05 0 .09 0 .13-.02.1-.05.13-.17.14-.28.12-.68.3-1.35.53-2 .31 0 .62-.01.93 0 .26.02.8-.2.86.12.14.65.28 1.31.41 1.96.01.05.03.11.07.14.04.02.08.02.12.02h.87c.04 0 .08 0 .11-.02s.05-.05.06-.08c.3-.59.53-1.21.69-1.85.03-.13.06-.26.13-.38.34.06.9-.14 1.17.14.13.14.19.34.24.53.02.06.04.13.05.19ZM46.32 60.05c.16-.05.3-.12.39-.22.38-.39.2-1.09-.21-1.45-.27-.24-.64-.38-1-.35-.79.07-1.31 1.22-.68 1.8.3.28 1 .36 1.49.22Zm53.97 5.75c0-.44-.36-.81-.8-.81-1.71 0-38.62-.19-44.23-.21-.4 0-.71.32-.71.71v20.29c0 .39.32.71.71.71h7.7c.25 0 .42-.24.35-.47l-2.36-7.9c-.08-.28.12-.56.41-.56l8.18-.04c.33 0 .62.18.77.48l3.77 7.75c.19.39.59.64 1.02.64l24.36.1c.45 0 .81-.36.81-.81V65.79Z"/><path d="M107.11 86.9c-.42-.01-.86-.07-1.16-.36-.37-.35-.4-.91-.41-1.42-.04-2.86-.09-5.72-.13-8.58-.02-1.45-.06-2.91-.07-4.37 0-.9-.17-2.39.39-3.13.46-.62 1.34-.71 2.11-.74 1.79-.08 3.54-.25 5.33-.25 3.98-.06 7.95-.18 11.93.04.93.05 2.01.2 2.51.99.26.41.3.92.34 1.41.36 4.92.26 9.75.22 14.69 0 .46-.03.97-.38 1.27-.19.17-.45.23-.7.28-2.49.52-5.06.5-7.6.45-4.06-.08-8.11-.22-12.18-.27h-.2Zm18.11-1.9h.16c.19-1.01.25-1.88.25-2.92 0-1.18-.01-2.35-.02-3.53-.01-2.39-.03-4.77-.04-7.16 0-.53 0-1.07-.14-1.58-.27-.03-.54-.03-.82-.05-.43-.03-.86-.05-1.29-.07-.27-.01-.59 0-.72.25-.06.12-.06.27-.06.4a253.895 253.895 0 0 1-.03 11.97c-.01.4-.02.8-.04 1.21 0 .28-.26 1.25 0 1.42.08.05.17.05.26.05.83 0 1.66 0 2.48.01ZM112.8 70.43c-.05 4.66.03 9.36.22 14.02.04 1.03 1.81.61 2.5.54.09 0 .2-.03.24-.11a.32.32 0 0 0 .03-.14c.17-4.88 0-9.79-.07-14.68 0-.21-2.71-.12-2.91-.1v.47Zm-2.35-.55c-.62 0-1.25 0-1.87.02-.19 0-.4.03-.5.19-.07.11-.07.25-.07.39.19 4.64.19 9.3.39 13.95 0 .09.01.19.07.26.06.06.15.08.23.1.58.1 1.17.17 1.76.2.13 0 .27 0 .36-.09.08-.08.08-.2.09-.31.13-4.88.16-9.79.12-14.69-.19 0-.39 0-.58-.01Zm9.59 15.17c.19-.02.38-.04.57-.05-.03 0 .1-14.07.08-15.35l-2.9.17.05 15.03c0 .09 0 .19.06.26s.17.08.27.08c.61.01 1.24-.07 1.86-.14ZM48.17 77.37c-.02 2.07-.04 5.78-.06 7.85 0 .77.09 1.29-.68 1.34-.73.05-2.08.07-3.12.06-.86 0-1.6.24-2.16-.51-.78-1.04-3.54-5.81-3.52-6.33.02-.65.7-1.04 1.3-1.29 1.43-.61 2.9-1.15 4.37-1.66.74-.26 1.47-.5 2.21-.75.34-.11 1.69-.83 1.68-.12v1.42ZM98.09 66.4l-41.19-.17c-.34 0-.63.28-.63.62V84.5c0 .34.28.62.62.62h3.58c.42.01.72-.39.6-.79l-2.05-7.44c-.12-.4.19-.8.6-.8l11.32.08c.23 0 .44.13.55.34l3.91 7.9c.11.21.32.34.55.34l22.13.08c.34 0 .63-.28.63-.62V67.03c0-.34-.28-.62-.62-.62Zm-6.33 1.85c.31-.4 4.38-.42 4.41.15.12 2.14.17 7.51.15 11.27 0 .16-4.16.38-4.44-.08-.15-.26-.34-11.08-.13-11.34Zm-32.82.92c-.3 0-.54-.24-.54-.54v-.14c0-.3.24-.54.54-.54h30.01c.3 0 .54.24.54.54v.14c0 .3-.24.54-.54.54H58.94Zm37.39 13.01c0 .3-.24.54-.54.54h-18.4c-.3 0-.54-.24-.54-.54v-.14c0-.3.24-.54.54-.54h18.4c.3 0 .54.24.54.54v.14ZM295.21 64.92h28.43c1.05 1.27 2.13 2.57 3.24 3.91-.65 3.67-1.35 7.3-1.91 10.96-.21 1.38-.73 2.4-1.87 3.2-.8.56-1.51 1.25-2.34 1.96.99 3.13 1.99 6.26 3.02 9.5h-12.12c-.81-2.88-1.63-5.78-2.46-8.71h-3.87c-.54 2.93-1.06 5.81-1.6 8.74h-12.27c.04-.47.05-.9.12-1.32 1.15-6.6 2.35-13.19 3.45-19.8.24-1.44.14-2.93.16-4.4.02-1.33 0-2.65 0-4.04Zm17.55 13.73c.35-2.08.7-4.12 1.06-6.27h-6.17c-.36 2.09-.7 4.13-1.07 6.27h6.17ZM360.83 64.85c-1 2.62-1.9 4.99-2.84 7.44h-15.78l-.81 3.73h13.49s2.14 2.58 3.24 3.91c-.3 1.73-.59 3.49-.9 5.24-.24 1.41-.52 2.81-.74 4.22-.12.78-.4 1.4-1.06 1.92-1.3 1.02-2.53 2.12-3.8 3.2h-24.29l-2.4-7.38 19.54-.04.7-4.03-13.28-.12-3.3-3.97 1.73-9.83 5.09-4.34s16.86.05 23.74.05h1.67ZM244.54 72.3h-10.35c-.34 0-.67.05-1 .16l-4.65 1.53s1.15-6.6 1.59-9.04h31.2c-.03.45-1.82 7.4-1.82 7.4L242.5 86.01l-.99 1.07h11.1l6.16-1.37s-2.42 6.35-3.34 8.77h-30.52c.45-2.51.89-4.95 1.32-7.37l18.38-14.59-.08-.22ZM289.39 75.76l-1.4 6.9h-12.96l-.74 4.43h15.13c-1 2.62-1.91 5.02-2.81 7.37h-26.04c.39-2.25.76-4.39 1.14-6.54.85-4.84 2.04-10.96 2.86-15.8.17-1-.7-7.18-.7-7.18h28.68c-.45 2.5-.89 4.89-1.33 7.35h-14.36c-.19 1.13-.37 2.2-.58 3.46h13.11ZM219.24 64.92h-18s-.35 4.35-.43 6.45c-.03.8-.25 1.45-.69 2.13-2.39 3.73-7.35 11.54-11.24 17.68l-1.49-4.14h-11.8c1.31-7.44 2.59-14.72 3.88-22.1h-13.81v2.93c.01 1.56.25 3.16.01 4.68-.82 5.19-1.8 10.36-2.72 15.54-.37 2.1-.73 4.2-1.1 6.38h24.94c-1.89 2.98-3.21 5.08-3.32 5.26h9.04c.26 0 .53-.04.85-.07.91-1.48 5.1-8.14 5.96-9.53 3.33-.23 10.64-.13 11.7.16.16 1.35.33 2.74.5 4.18h12.36c-1.56-9.92-4.66-29.54-4.66-29.54Zm-15.34 17.7c1.79-2.97 3.5-5.81 5.2-8.64.08.03.16.05.24.08.29 2.79.59 5.58.9 8.57h-6.35Z"/><path d="m56.18 14.68.35.04c.91.12 2.24.52 3.41 1.79 5.03 5.48 3.47 9.51 2.1 11.42-.47.65-.94 1.2-1.46 1.68l-.54.51c-2.15 2.01-4.59 4.3-7.48 6.23-1.06.71-2.06 1.25-3.05 1.66-.04.02-.08.03-.12.05 9.78 7.53 9.84 8.73 9.93 10.87.06 1.3.04 2.84.01 4.47-.02 1.13-.03 2.29-.02 3.35.17.17.34.35.49.52l3.79.06c.09-.11.21-.26.31-.4.2-.26.4-.52.61-.77 2.41-2.91 5.4-2.91 6.52-2.91h.76c1.23 0 2.46.02 3.69.04 2.35.04 4.73.1 7.07.2.39.02 1.29.05 2.32.47.43.18.81.39 1.14.62.01-.02.03-.03.04-.05.71-.76 1.98-1.69 3.99-1.77a55.083 55.083 0 0 1 3.89-.01c1.59.06 4 .3 6.57 1.73.56.31 1.11.65 1.66.98.79.48 1.54.94 2.2 1.22.67.29 1.19.42 1.58.42 1.03-.01 2.02-.03 2.97-.07a5.75 5.75 0 0 1 2.17-2.18c.83-.46 1.61-.62 2.06-.67.42-.9.97-1.68 1.66-2.33a7.062 7.062 0 0 1 4.88-1.93c.65 0 1.29.08 1.91.25.86-.33 1.78-.51 2.72-.51 1.78 0 3.48.62 4.81 1.74.96 0 1.93.06 2.88.16 1.65.18 3.22 1.09 3.99 1.95 1.03 1.15.71 4 .71 4h17.08l1.48 2.05h31.9l-4.14 21.7h3.89l7.34-11.07.67-10.62 127.66.03-8.61-30.85 18.47 16.83 7.83-29.36 11.1 28.04 22.83-21.08-7.52 33.35 30.01-9.24-23.16 23.78 20.85 6.81-22.8 9.56 17.16 15.51-23.51-1.12 2.06 26.18-19.41-14.15-12.01 29.2-8.74-28.51-24.95 17.57 16.96-32.4-118.16-.03-3.29 5.28H173.6l3.88-5.28h-18.6l-3.82 4.32s-11.56-.02-15.2-.03h-.06c-.3 0-.6 0-.87.14-.26.12-.45.34-.63.57-.49.63-.88 1.35-1.49 1.87-.57.49-1.32.57-2.08.57-.42 0-.84-.03-1.24-.03h-.2c-1.57.04-3.14.07-4.71.07h-3.84c-1.07 0-1.9-.02-2.69-.08-.63-.04-1.79-.13-3.03-.69-1.14-.52-1.91-1.24-2.32-1.63-.3-.29-.63-.62-.98-.97-.44.84-1.08 1.58-2.08 2.16-1.27.73-2.52.79-3.9.79s-3.44-.09-5.44-.17c-1.13-.05-2.23-.09-3.11-.12-.55-.02-1.7-.05-2.94-.59-1.91-.84-3.32-2.51-3.95-4.7-.08-.28-.14-.54-.2-.79-.11.18-.21.35-.33.53-.28.44-.74 1.1-1.5 1.69-.73.57-2 1.26-3.85 1.26-1.08 0-2.07-.41-3.15-.41-.14 0-.28 0-.43.02.1 2.99.2 5.98.31 8.96-5.16.12-10.33.11-15.5.16-1.66 0-2.84-.65-3.53-1.19-.8-.64-1.39-1.44-1.77-2.41-.17-.44-.35-.88-.53-1.32-.69-1.71-1.4-3.47-1.96-5.4-.12-.43-.23-.87-.34-1.31-.04-.17-.08-.34-.12-.5-2.36-.04-4.73-.05-7.08-.05h-1.16c-3.33.01-6.68.06-9.96.14h-.53c-.5.03-1.01.04-1.53.04-1.72 0-6.28 0-9.43-3.81-1.74-2.1-3.4-4.26-5-6.35l-.87-1.13c-.58-.75-1.14-1.52-1.69-2.27L9.83 85.12 9 84.69c-1.55-.81-4.11-2.87-3.94-7.46.11-2.87.27-7.21 2.95-11.38l.5-.78.73-.56c1.44-1.1 5.28-3.4 12.77-7.65-3.03-.8-3.71-1.21-4.13-1.46a6.439 6.439 0 0 1-3.11-4.78c-.44-3.7 2.32-6.76 3.18-7.61 1.62-1.61 3.29-3.14 4.91-4.63.69-.64 1.38-1.27 2.07-1.91.22-.21.43-.42.65-.63.11-.11.23-.22.35-.34-.15-.13-.31-.25-.47-.36-.55-.39-1.98-1.4-2.62-3.34-.56-1.69-.36-3.43.59-5.19 1.08-2.01 2.49-3.81 4.18-5.34.96-.87 2.06-1.38 3.28-1.51l.27-.03h.31c1.24 0 2.15.42 2.45.55.68.31 1.35.65 2.04.98 1.94.96 3.77 1.87 5.23 1.89 1.08 0 2.31-.41 3.6-1.17 1.52-.9 2.98-2.19 4.52-3.55.88-.77 1.76-1.49 2.61-2.18l.35-.28c1.33-1.08 2.67-1.31 3.57-1.31h.33M339.34 0l-3.98 14.91-5.67 21.26-12.27-11.19-13.1-11.94 4.76 17.08 6.8 24.38-120.95-.03h-37.07l-1.48-2.05H141.15a7.38 7.38 0 0 0-1.38-2.3c-1.74-1.94-4.52-3.33-7.25-3.62-.58-.06-1.16-.11-1.74-.14a12.576 12.576 0 0 0-6.49-1.79c-1.02 0-2.03.12-3.01.36-.53-.07-1.07-.1-1.61-.1-3.15 0-6.13 1.18-8.39 3.33-.54.51-1.02 1.06-1.46 1.66-.42.17-.83.37-1.23.59-.79.44-1.52.98-2.16 1.6h-.05c-.01 0-.02 0-.03-.01-.31-.13-.99-.54-1.53-.87-.64-.39-1.22-.74-1.84-1.08-3.94-2.19-7.65-2.32-8.87-2.37-.66-.02-1.33-.04-1.99-.04-.75 0-1.52.02-2.28.05-1.58.06-3.08.45-4.43 1.11-1.07-.28-1.98-.35-2.65-.38-2.37-.1-4.8-.17-7.2-.2-1.2-.02-2.46-.03-3.76-.03h-.78c-2.46 0-4.67.52-6.59 1.56 0-.34-.02-.67-.03-1-.16-3.62-1.37-5.92-6.26-10.13 2.05-1.62 3.84-3.3 5.37-4.73l.54-.51c.76-.7 1.45-1.5 2.12-2.43 1.43-1.99 5.47-9.17-2.48-17.84-2.22-2.41-4.78-3.18-6.53-3.4l-.38-.05-.3-.04h-.63c-1.72 0-4.29.42-6.78 2.45l-.35.29c-.89.72-1.8 1.47-2.75 2.3-1.37 1.2-2.66 2.33-3.77 3-.48.29-.8.4-.94.44-.65-.16-2.06-.86-3.02-1.34-.67-.33-1.42-.71-2.18-1.05-1.47-.67-3.01-1.02-4.57-1.02H30.91l-.25.03-.27.03c-2.28.24-4.41 1.21-6.17 2.8a24.815 24.815 0 0 0-5.25 6.71c-1.61 3-1.93 6.18-.94 9.2.22.67.49 1.27.79 1.82-1.45 1.34-2.94 2.72-4.41 4.18-1.63 1.62-5.35 6.01-4.65 11.84.25 2.05 1.02 3.96 2.23 5.56-2.97 1.75-4.77 2.9-5.78 3.67l-.74.56-.71.54-.49.75-.5.78C.33 68.46.13 73.84.01 77.06c-.2 5.39 2.23 9.82 6.66 12.16l.83.44.8.42.9.12 12.17 1.62.47.62.86 1.12c1.63 2.12 3.31 4.31 5.12 6.49 4.68 5.66 11.21 5.66 13.36 5.66.57 0 1.12-.01 1.68-.03h.51c3.21-.09 6.53-.14 9.84-.15h4.37c.5 1.47 1.05 2.82 1.55 4.06l.04.11c.16.39.32.78.47 1.18.72 1.82 1.84 3.34 3.34 4.53 1.35 1.06 3.58 2.3 6.7 2.3h.04l4.36-.03c3.67-.02 7.46-.04 11.21-.13l5.15-.12-.18-5.15-.12-3.42c.95-.13 1.8-.37 2.55-.67 1.01.99 2.2 1.79 3.53 2.37 2.15.94 4.1 1 4.83 1.02.87.03 1.94.07 3.05.12 2.04.08 4.14.17 5.65.17 1.81 0 3.92-.11 6.17-1.32.31.18.64.35.99.51 2.08.95 3.98 1.08 4.79 1.14.93.06 1.87.09 3.05.09h3.84c1.4 0 2.9-.02 4.84-.07h.5c.26 0 .53.02.8.02.81 0 3.28 0 5.38-1.79.53-.45.95-.92 1.29-1.36l13.64.03h2.3l1.52-1.72 2.3-2.6h6.23l-3.88 5.28h36.98l1.5-2.4 1.8-2.88 106.91.02-13.06 24.95-9.76 18.64 17.21-12.11 19.21-13.52 6.68 21.79 4.17 13.61 5.41-13.16 9.54-23.2 14.17 10.32 8.95 6.52-.87-11.04-1.61-20.41 17.74.84 14.22.68-10.56-9.54-11.21-10.14 15.4-6.46 12.62-5.29-13.01-4.25-13.08-4.27 17.45-17.92 13.92-14.29-19.07 5.87-21.6 6.65 5.59-24.78 3.6-15.97-12.03 11.1-17.37 16.04-8.37-21.13L339.3 0Z" style="fill:#ce2f3a"/></svg>